<mxfile host="app.diagrams.net" modified="2024-04-18T14:34:53.367Z" agent="Mozilla/5.0 (Windows NT 10.0; Win64; x64) AppleWebKit/537.36 (KHTML, like Gecko) Chrome/123.0.0.0 Safari/537.36 Edg/123.0.0.0" etag="kcZQT6NVi8dc5JsLbkLG" version="24.0.8" type="device">
  <diagram name="PÃ¡gina-1" id="XXfHnzxDMmXs4ql_Bb09">
    <mxGraphModel dx="1275" dy="720" grid="1" gridSize="10" guides="1" tooltips="1" connect="1" arrows="1" fold="1" page="1" pageScale="1" pageWidth="827" pageHeight="1169" math="0" shadow="0">
      <root>
        <mxCell id="0" />
        <mxCell id="1" parent="0" />
        <mxCell id="4G8PM3yjLBQe5VdLkAt0-1" value="" style="group" vertex="1" connectable="0" parent="1">
          <mxGeometry x="470.24" y="425" width="130" height="160" as="geometry" />
        </mxCell>
        <mxCell id="4G8PM3yjLBQe5VdLkAt0-2" value="" style="rounded=1;whiteSpace=wrap;html=1;" vertex="1" parent="4G8PM3yjLBQe5VdLkAt0-1">
          <mxGeometry width="120" height="160" as="geometry" />
        </mxCell>
        <mxCell id="4G8PM3yjLBQe5VdLkAt0-3" value="" style="endArrow=none;html=1;rounded=0;" edge="1" parent="4G8PM3yjLBQe5VdLkAt0-1" target="4G8PM3yjLBQe5VdLkAt0-2">
          <mxGeometry width="50" height="50" relative="1" as="geometry">
            <mxPoint y="60" as="sourcePoint" />
            <mxPoint x="50" y="10" as="targetPoint" />
          </mxGeometry>
        </mxCell>
        <mxCell id="4G8PM3yjLBQe5VdLkAt0-4" value="" style="endArrow=none;html=1;rounded=0;entryX=1.002;entryY=0.312;entryDx=0;entryDy=0;entryPerimeter=0;" edge="1" parent="4G8PM3yjLBQe5VdLkAt0-1">
          <mxGeometry width="50" height="50" relative="1" as="geometry">
            <mxPoint y="30.08" as="sourcePoint" />
            <mxPoint x="120.24000000000007" y="30.000000000000014" as="targetPoint" />
          </mxGeometry>
        </mxCell>
        <mxCell id="4G8PM3yjLBQe5VdLkAt0-5" value="" style="endArrow=none;html=1;rounded=0;entryX=1.002;entryY=0.312;entryDx=0;entryDy=0;entryPerimeter=0;" edge="1" parent="4G8PM3yjLBQe5VdLkAt0-1">
          <mxGeometry width="50" height="50" relative="1" as="geometry">
            <mxPoint y="120" as="sourcePoint" />
            <mxPoint x="120" y="120" as="targetPoint" />
          </mxGeometry>
        </mxCell>
        <mxCell id="4G8PM3yjLBQe5VdLkAt0-6" value="&lt;span style=&quot;font-size: 8px;&quot;&gt;Poligono Industrial&lt;/span&gt;" style="text;html=1;align=center;verticalAlign=middle;whiteSpace=wrap;rounded=0;" vertex="1" parent="4G8PM3yjLBQe5VdLkAt0-1">
          <mxGeometry width="120" height="30" as="geometry" />
        </mxCell>
        <mxCell id="4G8PM3yjLBQe5VdLkAt0-7" value="&lt;div style=&quot;font-size: 11px;&quot;&gt;-Nombre : String&lt;/div&gt;&lt;div style=&quot;font-size: 11px;&quot;&gt;-Ciudad : String&lt;/div&gt;" style="text;html=1;align=center;verticalAlign=middle;whiteSpace=wrap;rounded=0;" vertex="1" parent="4G8PM3yjLBQe5VdLkAt0-1">
          <mxGeometry y="44" width="120" height="40" as="geometry" />
        </mxCell>
        <mxCell id="4G8PM3yjLBQe5VdLkAt0-8" value="&lt;font style=&quot;font-size: 8px;&quot;&gt;+GetNombrePoligono(): String&lt;/font&gt;" style="text;html=1;align=center;verticalAlign=middle;whiteSpace=wrap;rounded=0;fontSize=16;" vertex="1" parent="4G8PM3yjLBQe5VdLkAt0-1">
          <mxGeometry y="120" width="120" height="30" as="geometry" />
        </mxCell>
        <mxCell id="4G8PM3yjLBQe5VdLkAt0-10" value="" style="group" vertex="1" connectable="0" parent="1">
          <mxGeometry x="260" y="165" width="120.24000000000007" height="160" as="geometry" />
        </mxCell>
        <mxCell id="4G8PM3yjLBQe5VdLkAt0-11" value="" style="rounded=1;whiteSpace=wrap;html=1;" vertex="1" parent="4G8PM3yjLBQe5VdLkAt0-10">
          <mxGeometry width="120" height="160" as="geometry" />
        </mxCell>
        <mxCell id="4G8PM3yjLBQe5VdLkAt0-12" value="" style="endArrow=none;html=1;rounded=0;" edge="1" parent="4G8PM3yjLBQe5VdLkAt0-10" target="4G8PM3yjLBQe5VdLkAt0-11">
          <mxGeometry width="50" height="50" relative="1" as="geometry">
            <mxPoint y="60" as="sourcePoint" />
            <mxPoint x="50" y="10" as="targetPoint" />
          </mxGeometry>
        </mxCell>
        <mxCell id="4G8PM3yjLBQe5VdLkAt0-13" value="" style="endArrow=none;html=1;rounded=0;entryX=1.002;entryY=0.312;entryDx=0;entryDy=0;entryPerimeter=0;" edge="1" parent="4G8PM3yjLBQe5VdLkAt0-10">
          <mxGeometry width="50" height="50" relative="1" as="geometry">
            <mxPoint y="30.08" as="sourcePoint" />
            <mxPoint x="120.24000000000007" y="30.000000000000014" as="targetPoint" />
          </mxGeometry>
        </mxCell>
        <mxCell id="4G8PM3yjLBQe5VdLkAt0-14" value="" style="endArrow=none;html=1;rounded=0;entryX=1.002;entryY=0.312;entryDx=0;entryDy=0;entryPerimeter=0;" edge="1" parent="4G8PM3yjLBQe5VdLkAt0-10">
          <mxGeometry width="50" height="50" relative="1" as="geometry">
            <mxPoint y="120" as="sourcePoint" />
            <mxPoint x="120" y="120" as="targetPoint" />
          </mxGeometry>
        </mxCell>
        <mxCell id="4G8PM3yjLBQe5VdLkAt0-15" value="&lt;font style=&quot;font-size: 8px;&quot;&gt;Departamento&lt;/font&gt;" style="text;html=1;align=center;verticalAlign=middle;whiteSpace=wrap;rounded=0;" vertex="1" parent="4G8PM3yjLBQe5VdLkAt0-10">
          <mxGeometry x="30" width="60" height="30" as="geometry" />
        </mxCell>
        <mxCell id="4G8PM3yjLBQe5VdLkAt0-16" value="&lt;font size=&quot;1&quot;&gt;-nombre: String&lt;/font&gt;&lt;div&gt;&lt;font size=&quot;1&quot;&gt;-numEmpleados: int&lt;/font&gt;&lt;/div&gt;" style="text;html=1;align=center;verticalAlign=middle;whiteSpace=wrap;rounded=0;" vertex="1" parent="4G8PM3yjLBQe5VdLkAt0-10">
          <mxGeometry y="40" width="120" height="40" as="geometry" />
        </mxCell>
        <mxCell id="4G8PM3yjLBQe5VdLkAt0-17" value="&lt;font style=&quot;font-size: 7px;&quot;&gt;+GetNombreDepartamento(): String&lt;/font&gt;" style="text;html=1;align=center;verticalAlign=middle;whiteSpace=wrap;rounded=0;fontSize=16;" vertex="1" parent="4G8PM3yjLBQe5VdLkAt0-10">
          <mxGeometry y="120" width="120" height="30" as="geometry" />
        </mxCell>
        <mxCell id="4G8PM3yjLBQe5VdLkAt0-18" value="&lt;font style=&quot;font-size: 8px;&quot;&gt;Localizado&lt;/font&gt;" style="text;html=1;align=center;verticalAlign=middle;whiteSpace=wrap;rounded=0;fontSize=16;rotation=-90;" vertex="1" parent="1">
          <mxGeometry x="520.24" y="355" width="60" height="20" as="geometry" />
        </mxCell>
        <mxCell id="4G8PM3yjLBQe5VdLkAt0-19" value="&lt;font style=&quot;font-size: 8px;&quot;&gt;1:1&lt;/font&gt;" style="text;html=1;align=center;verticalAlign=middle;whiteSpace=wrap;rounded=0;fontSize=16;" vertex="1" parent="1">
          <mxGeometry x="560.48" y="415" width="30" as="geometry" />
        </mxCell>
        <mxCell id="4G8PM3yjLBQe5VdLkAt0-20" value="&lt;font style=&quot;font-size: 8px;&quot;&gt;1:N&lt;/font&gt;" style="text;html=1;align=center;verticalAlign=middle;whiteSpace=wrap;rounded=0;fontSize=16;" vertex="1" parent="1">
          <mxGeometry x="560.48" y="335" width="30" as="geometry" />
        </mxCell>
        <mxCell id="4G8PM3yjLBQe5VdLkAt0-21" style="edgeStyle=none;curved=1;rounded=0;orthogonalLoop=1;jettySize=auto;html=1;entryX=0;entryY=0;entryDx=0;entryDy=0;fontSize=12;startSize=8;endSize=8;" edge="1" parent="1" source="4G8PM3yjLBQe5VdLkAt0-20" target="4G8PM3yjLBQe5VdLkAt0-20">
          <mxGeometry relative="1" as="geometry" />
        </mxCell>
        <mxCell id="4G8PM3yjLBQe5VdLkAt0-22" value="" style="endArrow=classic;html=1;rounded=0;fontSize=12;startSize=8;endSize=8;curved=1;exitX=0.75;exitY=0;exitDx=0;exitDy=0;endFill=1;" edge="1" parent="1" source="4G8PM3yjLBQe5VdLkAt0-6" target="4G8PM3yjLBQe5VdLkAt0-46">
          <mxGeometry width="50" height="50" relative="1" as="geometry">
            <mxPoint x="350.24" y="445" as="sourcePoint" />
            <mxPoint x="350.24" y="325" as="targetPoint" />
          </mxGeometry>
        </mxCell>
        <mxCell id="4G8PM3yjLBQe5VdLkAt0-23" value="" style="rhombus;whiteSpace=wrap;html=1;fillColor=#f8cecc;strokeColor=#b85450;" vertex="1" parent="1">
          <mxGeometry x="550.24" y="415" width="20" height="20" as="geometry" />
        </mxCell>
        <mxCell id="4G8PM3yjLBQe5VdLkAt0-33" value="&lt;span style=&quot;font-size: 10px;&quot;&gt;Distribuido&lt;/span&gt;" style="text;html=1;align=center;verticalAlign=middle;whiteSpace=wrap;rounded=0;fontSize=16;" vertex="1" parent="1">
          <mxGeometry x="414" y="250" width="60" height="30" as="geometry" />
        </mxCell>
        <mxCell id="4G8PM3yjLBQe5VdLkAt0-35" value="&lt;font style=&quot;font-size: 8px;&quot;&gt;1:N&lt;/font&gt;" style="text;html=1;align=center;verticalAlign=middle;whiteSpace=wrap;rounded=0;fontSize=16;" vertex="1" parent="1">
          <mxGeometry x="380.24" y="231" width="30" as="geometry" />
        </mxCell>
        <mxCell id="4G8PM3yjLBQe5VdLkAt0-36" value="&lt;font style=&quot;font-size: 8px;&quot;&gt;1:N&lt;/font&gt;" style="text;html=1;align=center;verticalAlign=middle;whiteSpace=wrap;rounded=0;fontSize=16;" vertex="1" parent="1">
          <mxGeometry x="470.24" y="231" width="30" as="geometry" />
        </mxCell>
        <mxCell id="4G8PM3yjLBQe5VdLkAt0-39" value="" style="endArrow=none;html=1;rounded=0;fontSize=12;startSize=8;endSize=8;curved=1;exitX=1;exitY=1;exitDx=0;exitDy=0;entryX=0;entryY=0.5;entryDx=0;entryDy=0;" edge="1" parent="1" source="4G8PM3yjLBQe5VdLkAt0-16">
          <mxGeometry width="50" height="50" relative="1" as="geometry">
            <mxPoint x="380.24" y="245" as="sourcePoint" />
            <mxPoint x="500.24" y="245" as="targetPoint" />
          </mxGeometry>
        </mxCell>
        <mxCell id="4G8PM3yjLBQe5VdLkAt0-40" value="" style="rounded=1;whiteSpace=wrap;html=1;" vertex="1" parent="1">
          <mxGeometry x="501.24" y="166" width="120" height="160" as="geometry" />
        </mxCell>
        <mxCell id="4G8PM3yjLBQe5VdLkAt0-41" value="" style="endArrow=none;html=1;rounded=0;" edge="1" parent="1" target="4G8PM3yjLBQe5VdLkAt0-40">
          <mxGeometry width="50" height="50" relative="1" as="geometry">
            <mxPoint x="500.24" y="225" as="sourcePoint" />
            <mxPoint x="550.24" y="175" as="targetPoint" />
          </mxGeometry>
        </mxCell>
        <mxCell id="4G8PM3yjLBQe5VdLkAt0-42" value="" style="endArrow=none;html=1;rounded=0;entryX=1.002;entryY=0.312;entryDx=0;entryDy=0;entryPerimeter=0;" edge="1" parent="1">
          <mxGeometry width="50" height="50" relative="1" as="geometry">
            <mxPoint x="500.24" y="195.07999999999998" as="sourcePoint" />
            <mxPoint x="620.48" y="195" as="targetPoint" />
          </mxGeometry>
        </mxCell>
        <mxCell id="4G8PM3yjLBQe5VdLkAt0-43" value="" style="endArrow=none;html=1;rounded=0;entryX=1.002;entryY=0.312;entryDx=0;entryDy=0;entryPerimeter=0;" edge="1" parent="1">
          <mxGeometry width="50" height="50" relative="1" as="geometry">
            <mxPoint x="500.24" y="285" as="sourcePoint" />
            <mxPoint x="620.24" y="285" as="targetPoint" />
          </mxGeometry>
        </mxCell>
        <mxCell id="4G8PM3yjLBQe5VdLkAt0-44" value="&lt;span style=&quot;font-size: 8px;&quot;&gt;Edificio&lt;/span&gt;" style="text;html=1;align=center;verticalAlign=middle;whiteSpace=wrap;rounded=0;" vertex="1" parent="1">
          <mxGeometry x="500.24" y="165" width="120" height="30" as="geometry" />
        </mxCell>
        <mxCell id="4G8PM3yjLBQe5VdLkAt0-45" value="&lt;font style=&quot;font-size: 11px;&quot;&gt;-nombre: String&lt;/font&gt;&lt;div style=&quot;font-size: 11px;&quot;&gt;&lt;font style=&quot;font-size: 11px;&quot;&gt;-numDespachos: int&lt;/font&gt;&lt;/div&gt;" style="text;html=1;align=center;verticalAlign=middle;whiteSpace=wrap;rounded=0;" vertex="1" parent="1">
          <mxGeometry x="500.48" y="195" width="120" height="60" as="geometry" />
        </mxCell>
        <mxCell id="4G8PM3yjLBQe5VdLkAt0-46" value="&lt;span style=&quot;font-size: 7px;&quot;&gt;+GetNombreEdificio(): String&lt;/span&gt;" style="text;html=1;align=center;verticalAlign=middle;whiteSpace=wrap;rounded=0;" vertex="1" parent="1">
          <mxGeometry x="500.48" y="266" width="120" height="60" as="geometry" />
        </mxCell>
        <mxCell id="4G8PM3yjLBQe5VdLkAt0-50" value="" style="group" vertex="1" connectable="0" parent="1">
          <mxGeometry x="380" width="120.24000000000007" height="160" as="geometry" />
        </mxCell>
        <mxCell id="4G8PM3yjLBQe5VdLkAt0-51" value="" style="rounded=1;whiteSpace=wrap;html=1;" vertex="1" parent="4G8PM3yjLBQe5VdLkAt0-50">
          <mxGeometry width="120" height="160" as="geometry" />
        </mxCell>
        <mxCell id="4G8PM3yjLBQe5VdLkAt0-52" value="" style="endArrow=none;html=1;rounded=0;" edge="1" parent="4G8PM3yjLBQe5VdLkAt0-50" target="4G8PM3yjLBQe5VdLkAt0-51">
          <mxGeometry width="50" height="50" relative="1" as="geometry">
            <mxPoint y="60" as="sourcePoint" />
            <mxPoint x="50" y="10" as="targetPoint" />
          </mxGeometry>
        </mxCell>
        <mxCell id="4G8PM3yjLBQe5VdLkAt0-53" value="" style="endArrow=none;html=1;rounded=0;entryX=1.002;entryY=0.312;entryDx=0;entryDy=0;entryPerimeter=0;" edge="1" parent="4G8PM3yjLBQe5VdLkAt0-50">
          <mxGeometry width="50" height="50" relative="1" as="geometry">
            <mxPoint y="30.08" as="sourcePoint" />
            <mxPoint x="120.24000000000007" y="30.000000000000014" as="targetPoint" />
          </mxGeometry>
        </mxCell>
        <mxCell id="4G8PM3yjLBQe5VdLkAt0-54" value="" style="endArrow=none;html=1;rounded=0;entryX=1.002;entryY=0.312;entryDx=0;entryDy=0;entryPerimeter=0;" edge="1" parent="4G8PM3yjLBQe5VdLkAt0-50">
          <mxGeometry width="50" height="50" relative="1" as="geometry">
            <mxPoint y="120" as="sourcePoint" />
            <mxPoint x="120" y="120" as="targetPoint" />
          </mxGeometry>
        </mxCell>
        <mxCell id="4G8PM3yjLBQe5VdLkAt0-55" value="&lt;span style=&quot;font-size: 8px;&quot;&gt;Despacho&lt;/span&gt;" style="text;html=1;align=center;verticalAlign=middle;whiteSpace=wrap;rounded=0;" vertex="1" parent="4G8PM3yjLBQe5VdLkAt0-50">
          <mxGeometry x="30" width="60" height="30" as="geometry" />
        </mxCell>
        <mxCell id="4G8PM3yjLBQe5VdLkAt0-56" value="&lt;font size=&quot;1&quot;&gt;-nombre: String&lt;/font&gt;" style="text;html=1;align=center;verticalAlign=middle;whiteSpace=wrap;rounded=0;" vertex="1" parent="4G8PM3yjLBQe5VdLkAt0-50">
          <mxGeometry y="40" width="120" height="40" as="geometry" />
        </mxCell>
        <mxCell id="4G8PM3yjLBQe5VdLkAt0-57" value="&lt;font style=&quot;font-size: 8px;&quot;&gt;+MostrarDatos(): string&lt;/font&gt;" style="text;html=1;align=center;verticalAlign=middle;whiteSpace=wrap;rounded=0;fontSize=16;" vertex="1" parent="4G8PM3yjLBQe5VdLkAt0-50">
          <mxGeometry x="15.06" y="120" width="89.88" height="30" as="geometry" />
        </mxCell>
        <mxCell id="4G8PM3yjLBQe5VdLkAt0-59" value="" style="endArrow=none;dashed=1;html=1;rounded=0;entryX=0.519;entryY=1.004;entryDx=0;entryDy=0;entryPerimeter=0;" edge="1" parent="1" target="4G8PM3yjLBQe5VdLkAt0-51">
          <mxGeometry width="50" height="50" relative="1" as="geometry">
            <mxPoint x="442" y="250" as="sourcePoint" />
            <mxPoint x="420" y="210" as="targetPoint" />
          </mxGeometry>
        </mxCell>
      </root>
    </mxGraphModel>
  </diagram>
</mxfile>
